<?xml version="1.0" encoding="UTF-8"?>
<!-- Generated by Pixelmator Pro 3.6.8 -->
<svg width="103" height="108" viewBox="0 0 103 108" xmlns="http://www.w3.org/2000/svg">
    <path id="Circle-" fill="#68b7ff" fill-rule="evenodd" stroke="none" d="M 51.887379 107.025902 C 30.311666 107.010735 11.756148 94.105392 3.499137 75.598373 C 2.682512 73.768021 1.68262 66.714096 9.924591 68.025894 C 21.308796 69.837845 39.541031 78.078995 50.924595 81.025894 C 56.220402 82.396843 61.346348 78.384819 61.924595 77.025894 C 62.580215 75.485153 61.78125 71.590103 57.924595 70.025894 C 50.752491 67.116989 35.108368 63.295094 24.924597 60.025898 C 19.753395 58.365833 15.792272 56.984192 13 55.966846 L 13 56 C 13 56 12.833676 55.928692 12.544589 55.800365 C 9.442866 54.662651 7.924593 54.025898 7.924593 54.025898 C 7.924593 54.025898 8.236525 54.025703 8.820439 54.025379 C 6.984034 53.084259 5.016959 51.957664 4 51 C 2.891052 49.955719 1.258118 47.108215 1 44 C 0.696991 40.351227 1.920059 36.351044 2.637695 34.603699 C 10.168503 16.26712 29.893631 0.984467 52.037216 1 C 73.61293 1.015167 92.168442 13.920502 100.425461 32.427521 C 101.242081 34.257874 102.241974 41.311798 94 40 C 82.615799 38.188049 64.38356 29.946899 53 27 C 47.704193 25.629059 42.578247 29.641083 42 31 C 41.344376 32.540741 42.143341 36.435791 46 38 C 53.172104 40.908905 68.816223 44.730804 79 48 C 84.171196 49.660065 88.132324 51.041702 90.924591 52.059048 L 90.924591 52.025898 C 90.924591 52.025898 91.090904 52.097202 91.379982 52.225525 C 94.48172 53.363243 96 54 96 54 C 96 54 95.688065 54.000195 95.104149 54.000519 C 96.940552 54.941639 98.907631 56.068233 99.924591 57.025898 C 101.033539 58.070179 102.666473 60.917683 102.924591 64.025894 C 103.2276 67.674667 102.004532 71.674858 101.286896 73.422203 C 93.756088 91.758774 74.03096 107.041435 51.887379 107.025902 Z M 90.924591 54.002548 L 90.924591 54.025898 C 90.924591 54.025898 65.201965 54.035221 51.924591 54.025898 C 37.072399 54.015472 20.976559 54.019947 13 54.02335 L 13 54 C 13 54 38.722626 53.990677 52 54 C 66.852196 54.010426 82.948029 54.005951 90.924591 54.002548 Z"/>
</svg>
