<?xml version="1.0" encoding="UTF-8"?>
<!-- Generated by Pixelmator Pro 3.6.8 -->
<svg width="770" height="115" viewBox="0 0 770 115" xmlns="http://www.w3.org/2000/svg">
    <g id="g1">
        <g id="g2">
            <path id="path1" fill="#fe6bb5" fill-rule="evenodd" stroke="none" d="M 446.120117 66.76001 C 448.52002 66.76001 449.600098 65.560059 449.719971 63.160034 L 450.919922 8.800049 C 451.040039 6.400024 449.840088 5.199951 447.439941 5.199951 L 432.800049 5.199951 C 430.400024 5.199951 429.319946 6.400024 429.319946 8.800049 L 430.040039 63.160034 C 430.040039 65.560059 431.23999 66.76001 433.640015 66.76001 Z"/>
            <path id="path2" fill="#ff3399" fill-rule="evenodd" stroke="none" d="M 441.560059 113.199951 C 445.280029 113.199951 447.439941 112.119995 447.560059 108.400024 L 448.280029 77.079956 C 448.399902 73.359985 446 70.959961 442.280029 71.079956 L 383.23999 72.040039 C 379.52002 72.160034 377.119995 74.319946 377.23999 78.040039 L 377.839966 107.560059 C 377.959961 111.280029 380.119995 113.560059 383.839966 113.560059 Z M 419.599976 50.439941 C 419.359985 48.280029 418.400024 47.319946 415.880005 47.680054 C 404.839966 49.119995 391.160034 49.47998 380.47998 49.23999 L 380.359985 43.599976 L 409.880005 43.23999 C 412.280029 43.23999 413.839966 42.040039 413.839966 39.640015 L 413.959961 31.47998 C 413.959961 29.560059 412.76001 27.880005 410.599976 27.880005 L 380.359985 28.119995 L 380.359985 22.47998 L 411.319946 22.23999 C 413.839966 22.23999 415.52002 20.560059 415.52002 18.040039 L 415.52002 10.47998 C 415.52002 7.959961 413.839966 6.280029 411.319946 6.280029 L 368.839966 6.52002 C 363.920044 6.52002 360.319946 9.280029 360.439941 14.920044 L 361.160034 57.76001 C 361.280029 63.160034 364.160034 65.920044 369.560059 66.040039 C 386.599976 66.280029 406.040039 65.199951 417.680054 62.199951 C 419.839966 61.599976 420.800049 60.52002 420.560059 58.23999 Z M 428.23999 98.560059 L 397.880005 98.800049 L 397.880005 86.439941 L 428.23999 86.079956 Z"/>
            <path id="path3" fill="#ff3399" fill-rule="evenodd" stroke="none" d="M 539.959961 113.199951 C 542.120117 113.199951 543.560059 111.76001 543.560059 109.599976 L 543.679932 104.079956 C 543.679932 101.920044 542.23999 100.47998 540.080078 100.47998 L 494.47998 100.119995 L 494.47998 96.880005 L 536.600098 96.040039 C 539.719971 95.920044 541.879883 93.76001 542 90.640015 L 542.719971 71.560059 C 542.840088 68.079956 540.800049 66.040039 537.320068 66.160034 L 474.320068 67.119995 C 471.919922 67.119995 470.719971 68.319946 470.719971 70.719971 L 470.719971 77.800049 C 470.719971 79.839966 472.040039 81.400024 474.320068 81.400024 L 520.639893 80.560059 L 520.52002 84.040039 L 477.919922 85.359985 C 474.800049 85.47998 472.399902 87.640015 472.52002 90.76001 L 473.120117 108.640015 C 473.23999 111.76001 475.399902 114.040039 478.52002 114.040039 Z M 542.120117 41.680054 C 544.280029 41.560059 545.719971 40.23999 545.719971 38.079956 L 545.719971 31.119995 C 545.719971 28.959961 544.280029 27.52002 542.120117 27.52002 L 532.639893 27.52002 L 532.879883 17.680054 L 542.120117 17.560059 C 544.280029 17.560059 545.719971 16.119995 545.719971 13.959961 L 545.719971 7 C 545.719971 4.839966 544.280029 3.400024 542.120117 3.400024 L 471.800049 2.920044 C 469.639893 2.920044 468.199951 4.359985 468.199951 6.52002 L 468.199951 14.800049 C 468.199951 16.959961 469.639893 18.400024 471.800049 18.400024 L 481.280029 18.280029 L 481.52002 27.640015 L 471.800049 27.640015 C 469.639893 27.640015 468.199951 29.079956 468.199951 31.23999 L 468.199951 39.52002 C 468.199951 41.680054 469.639893 43.23999 471.800049 43.119995 Z M 513.560059 27.640015 L 500.719971 27.640015 L 500.719971 18.040039 L 513.560059 17.920044 Z"/>
            <path id="--3" fill="#fe6bb5" fill-rule="evenodd" stroke="none" d="M 548.120117 61.47998 C 550.280029 61.359985 551.719971 60.040039 551.719971 57.880005 L 551.719971 50.560059 C 551.719971 48.400024 550.280029 46.959961 548.120117 46.959961 L 465.800049 47.439941 C 463.639893 47.439941 462.199951 48.880005 462.199951 51.040039 L 462.199951 59.680054 C 462.199951 61.839966 463.639893 63.400024 465.800049 63.280029 Z"/>
            <path id="path4" fill="#ff3399" fill-rule="evenodd" stroke="none" d="M 590.959961 89.680054 C 593.120117 90.640015 595.159912 89.920044 596.47998 87.76001 C 606.800049 70.839966 614.360107 46.599976 614.360107 22.359985 L 614.360107 19.959961 C 614.360107 15.040039 611.360107 12.76001 607.159912 12.76001 L 564.679932 12.76001 C 562.52002 12.76001 561.080078 14.199951 561.080078 16.359985 L 561.080078 28.959961 C 561.080078 31.119995 562.52002 32.560059 564.679932 32.560059 L 593 32.560059 C 592.399902 47.800049 587.360107 65.319946 579.439941 81.040039 C 578.360107 83.199951 579.080078 85.119995 580.879883 85.839966 Z"/>
            <path id="-" fill="#fe6bb5" fill-rule="evenodd" stroke="none" d="M 642.439941 100.959961 C 644.840088 100.959961 646.040039 99.76001 646.040039 97.359985 L 647.23999 56.920044 L 659 56.680054 C 661.52002 56.680054 663.199951 55 663.199951 52.47998 L 663.199951 42.640015 C 663.199951 40.119995 661.52002 38.439941 659 38.439941 L 647.840088 38.560059 L 648.679932 12.400024 C 648.800049 10 647.600098 8.800049 645.199951 8.800049 L 630.560059 8.800049 C 628.159912 8.800049 627.080078 10 627.080078 12.400024 L 627.080078 97.359985 C 627.080078 99.76001 628.280029 100.959961 630.679932 100.959961 Z"/>
            <path id="path5" fill="#ff3399" fill-rule="evenodd" stroke="none" d="M 737.360107 100.959961 C 739.76001 100.959961 740.959961 99.76001 740.959961 97.359985 L 742.399902 13.599976 C 742.52002 11.199951 741.320068 10 738.919922 10 L 725.47998 10 C 723.080078 10 722 11.199951 722 13.599976 L 722.360107 40.599976 L 712.76001 40.599976 C 713.600098 34.359985 713.959961 28.23999 713.959961 22.359985 L 713.959961 19.959961 C 713.959961 15.040039 710.959961 12.76001 706.76001 12.76001 L 670.879883 12.76001 C 669.080078 12.76001 667.879883 13.959961 667.879883 15.76001 L 667.879883 29.560059 C 667.879883 31.359985 669.080078 32.560059 670.879883 32.560059 L 693.800049 32.560059 C 693.199951 47.920044 689.360107 64.959961 683.600098 80.199951 C 682.76001 82.599976 683.47998 84.280029 685.280029 85 L 694.399902 88.359985 C 696.560059 89.199951 698.600098 88.47998 699.800049 86.079956 C 703.879883 77.680054 707 68.439941 709.280029 58.959961 C 709.879883 59.199951 710.47998 59.319946 711.199951 59.319946 L 722.600098 59.319946 L 723.199951 97.359985 C 723.199951 99.76001 724.399902 100.959961 726.800049 100.959961 Z"/>
            <path id="--2" fill="#fe6bb5" fill-rule="evenodd" stroke="none" d="M 761.23999 100.959961 C 763.639893 100.959961 764.840088 99.76001 764.840088 97.359985 L 767.47998 12.400024 C 767.600098 10 766.399902 8.800049 764 8.800049 L 750.560059 8.800049 C 748.159912 8.800049 747.080078 10 747.080078 12.400024 L 747.080078 97.359985 C 747.080078 99.76001 748.280029 100.959961 750.679932 100.959961 Z"/>
            <path id="--6" fill="#fea0d0" fill-rule="evenodd" stroke="none" d="M 375 15.5 C 375 13.014717 372.985291 11 370.5 11 C 368.014709 11 366 13.014717 366 15.5 C 366 17.985283 368.014709 20 370.5 20 C 372.985291 20 375 17.985283 375 15.5 Z"/>
            <path id="--7" fill="#fea0d0" fill-rule="evenodd" stroke="none" d="M 391 80.5 C 391 78.014717 388.985291 76 386.5 76 C 384.014709 76 382 78.014717 382 80.5 C 382 82.985283 384.014709 85 386.5 85 C 388.985291 85 391 82.985283 391 80.5 Z"/>
            <path id="--12" fill="#fea0d0" fill-rule="evenodd" stroke="none" d="M 575 22.5 C 575 20.014717 572.985291 18 570.5 18 C 568.014709 18 566 20.014717 566 22.5 C 566 24.985283 568.014709 27 570.5 27 C 572.985291 27 575 24.985283 575 22.5 Z"/>
            <path id="--15" fill="#fea0d0" fill-rule="evenodd" stroke="none" d="M 682 22.5 C 682 20.014717 679.985291 18 677.5 18 C 675.014709 18 673 20.014717 673 22.5 C 673 24.985283 675.014709 27 677.5 27 C 679.985291 27 682 24.985283 682 22.5 Z"/>
            <path id="--13" fill="#ffdfef" fill-rule="evenodd" stroke="none" d="M 642 18.5 C 642 16.014717 639.985291 14 637.5 14 C 635.014709 14 633 16.014717 633 18.5 C 633 20.985283 635.014709 23 637.5 23 C 639.985291 23 642 20.985283 642 18.5 Z"/>
            <path id="--14" fill="#ffdfef" fill-rule="evenodd" stroke="none" d="M 761 17.5 C 761 15.014717 758.985291 13 756.5 13 C 754.014709 13 752 15.014717 752 17.5 C 752 19.985283 754.014709 22 756.5 22 C 758.985291 22 761 19.985283 761 17.5 Z"/>
            <path id="--9" fill="#fea0d0" fill-rule="evenodd" stroke="none" d="M 483 74 C 483 71.790863 481.209137 70 479 70 C 476.790863 70 475 71.790863 475 74 C 475 76.209137 476.790863 78 479 78 C 481.209137 78 483 76.209137 483 74 Z"/>
            <path id="--10" fill="#ffdfef" fill-rule="evenodd" stroke="none" d="M 475 55 C 475 52.790863 473.209137 51 471 51 C 468.790863 51 467 52.790863 467 55 C 467 57.209141 468.790863 59 471 59 C 473.209137 59 475 57.209141 475 55 Z"/>
            <path id="--11" fill="#fea0d0" fill-rule="evenodd" stroke="none" d="M 480 11 C 480 8.790863 478.209137 7 476 7 C 473.790863 7 472 8.790863 472 11 C 472 13.209137 473.790863 15 476 15 C 478.209137 15 480 13.209137 480 11 Z"/>
            <path id="--8" fill="#ffdfef" fill-rule="evenodd" stroke="none" d="M 444 14.5 C 444 12.014717 441.985291 10 439.5 10 C 437.014709 10 435 12.014717 435 14.5 C 435 16.985283 437.014709 19 439.5 19 C 441.985291 19 444 16.985283 444 14.5 Z"/>
        </g>
        <g id="g3">
            <text id="text1" xml:space="preserve" x="262" y="101" font-family="ONE Mobile POP OTF" font-size="72" fill="#ff3399">ㅢ</text>
            <text id="text2" xml:space="preserve" x="265" y="81" font-family="ONE Mobile POP OTF" font-size="50" fill="#fe6bb5">ㅇ</text>
        </g>
        <g id="SSU">
            <text id="text3" xml:space="preserve" x="-6" y="98" font-family="ONE Mobile POP OTF" font-size="120" fill="#ff3399">SSU</text>
            <path id="path6" fill="#fea0d0" fill-rule="evenodd" stroke="none" d="M 176 21.5 C 176 18.462433 173.537567 16 170.5 16 C 167.462433 16 165 18.462433 165 21.5 C 165 24.537567 167.462433 27 170.5 27 C 173.537567 27 176 24.537567 176 21.5 Z"/>
            <path id="path7" fill="#fea0d0" fill-rule="evenodd" stroke="none" d="M 98 88.5 C 98 85.462433 95.537567 83 92.5 83 C 89.462433 83 87 85.462433 87 88.5 C 87 91.537567 89.462433 94 92.5 94 C 95.537567 94 98 91.537567 98 88.5 Z"/>
            <path id="path8" fill="#fea0d0" fill-rule="evenodd" stroke="none" d="M 64 24.5 C 64 21.462433 61.537567 19 58.5 19 C 55.462433 19 53 21.462433 53 24.5 C 53 27.537567 55.462433 30 58.5 30 C 61.537567 30 64 27.537567 64 24.5 Z"/>
            <path id="path9" fill="#fea0d0" fill-rule="evenodd" stroke="none" d="M 17 88.5 C 17 85.462433 14.537566 83 11.5 83 C 8.462434 83 6 85.462433 6 88.5 C 6 91.537567 8.462434 94 11.5 94 C 14.537566 94 17 91.537567 17 88.5 Z"/>
            <path id="--5" fill="#fea0d0" fill-rule="evenodd" stroke="none" d="M 176 21.5 C 176 18.462433 173.537567 16 170.5 16 C 167.462433 16 165 18.462433 165 21.5 C 165 24.537567 167.462433 27 170.5 27 C 173.537567 27 176 24.537567 176 21.5 Z"/>
            <path id="--4" fill="#fea0d0" fill-rule="evenodd" stroke="none" d="M 17 88.5 C 17 85.462433 14.537566 83 11.5 83 C 8.462434 83 6 85.462433 6 88.5 C 6 91.537567 8.462434 94 11.5 94 C 14.537566 94 17 91.537567 17 88.5 Z"/>
        </g>
    </g>
</svg>
