<?xml version="1.0" encoding="UTF-8"?>
<svg id="_레이어_2" data-name="레이어_2" xmlns="http://www.w3.org/2000/svg" viewBox="0 0 729.84 637.6">
  <defs>
    <style>
      .cls-1 {
        fill: #60c1c3;
      }

      .cls-2 {
        stroke-width: 3px;
      }

      .cls-2, .cls-3, .cls-4, .cls-5, .cls-6, .cls-7, .cls-8, .cls-9, .cls-10, .cls-11 {
        stroke-miterlimit: 10;
      }

      .cls-2, .cls-3, .cls-12, .cls-8, .cls-9, .cls-10 {
        fill: #fff;
      }

      .cls-2, .cls-4, .cls-13, .cls-5, .cls-12, .cls-6, .cls-7, .cls-8, .cls-9, .cls-10, .cls-11 {
        stroke: #000;
      }

      .cls-14 {
        stroke: #fff;
        stroke-width: 6.13px;
      }

      .cls-14, .cls-13, .cls-12 {
        stroke-linecap: round;
        stroke-linejoin: round;
      }

      .cls-14, .cls-5, .cls-6, .cls-7, .cls-11 {
        fill: #004324;
      }

      .cls-3 {
        font-family: Athletic, Athletic;
        font-size: 82.39px;
        stroke: #ccc9c7;
      }

      .cls-4 {
        fill: #f8efe8;
        stroke-width: 2.7px;
      }

      .cls-13 {
        fill: none;
        stroke-width: 3.99px;
      }

      .cls-5 {
        stroke-width: 2.41px;
      }

      .cls-12 {
        stroke-width: 2.32px;
      }

      .cls-6, .cls-8 {
        stroke-width: 3.06px;
      }

      .cls-7 {
        stroke-width: 2.03px;
      }

      .cls-15 {
        fill: #009bcb;
      }

      .cls-9, .cls-11 {
        stroke-width: 2.8px;
      }

      .cls-10 {
        stroke-width: 2.22px;
      }

      .cls-16 {
        fill: #006694;
      }
    </style>
  </defs>
  <g id="_레이어_1-2" data-name="레이어_1">
    <path class="cls-4" d="M105.53,542.94c-5.99,25.24-34.42,41.24-64.01,35.12-27.29-8.76-43.98-33.87-39.42-57.6,4.9-25.5,33.29-43.85,62.82-37.04,28.82,6.64,46.56,34.44,40.61,59.52Z"/>
    <path class="cls-11" d="M105.68,526.27c-18.48-3.47-38.16-7.95-58.79-13.73-12.39-3.47-24.21-7.15-35.46-10.96.94-2.96,1.83-6.06,2.63-9.3,3.25-13.2,4.26-25.4,4.17-35.91,2.19-1.15,5.04-2.41,8.49-3.37,3.45-.96,6.53-1.37,9-1.52l73.07,16.87c2.46,1.74,4.94,3.51,7.42,5.31,2.1,1.52,4.18,3.05,6.24,4.57-4.93,10.53-9.63,22.48-13.53,35.81-1.22,4.17-2.29,8.25-3.24,12.22Z"/>
    <path class="cls-9" d="M106.86,521.52c-20.51-3.57-42.76-8.67-66.24-15.94-9.57-2.96-18.73-6.09-27.48-9.33.69-3.04,1.38-6.08,2.07-9.12,8.77,3.31,18.01,6.5,27.7,9.51,23.6,7.32,45.87,12.26,66.21,15.59-.75,3.1-1.5,6.19-2.26,9.29Z"/>
    <path class="cls-9" d="M111.41,506.03c-19.85-2.65-42.12-7.08-65.95-14.35-10.35-3.16-20.08-6.58-29.2-10.13.43-3.27.86-6.55,1.29-9.82,9.34,3.84,19.41,7.55,30.22,10.95,24.3,7.65,46.9,12.06,66.72,14.55-1.03,2.94-2.06,5.87-3.09,8.81Z"/>
    <path class="cls-4" d="M624.32,552.46c5.99,25.24,34.42,41.24,64.01,35.12,27.29-8.76,43.98-33.87,39.42-57.6-4.9-25.5-33.29-43.85-62.82-37.04-28.82,6.64-46.56,34.44-40.61,59.52Z"/>
    <path class="cls-11" d="M624.17,535.79c18.48-3.47,38.16-7.95,58.79-13.73,12.39-3.47,24.21-7.15,35.46-10.96-.94-2.96-1.83-6.06-2.63-9.3-3.25-13.2-4.26-25.4-4.17-35.91-2.19-1.15-5.04-2.41-8.49-3.37-3.45-.96-6.53-1.37-9-1.52l-73.07,16.87c-2.46,1.74-4.94,3.51-7.42,5.31-2.1,1.52-4.18,3.05-6.24,4.57,4.93,10.53,9.63,22.48,13.53,35.81,1.22,4.17,2.29,8.25,3.24,12.22Z"/>
    <path class="cls-9" d="M622.98,531.03c20.51-3.57,42.76-8.67,66.24-15.94,9.57-2.96,18.73-6.09,27.48-9.33-.69-3.04-1.38-6.08-2.07-9.12-8.77,3.31-18.01,6.5-27.7,9.51-23.6,7.32-45.87,12.26-66.21,15.59.75,3.1,1.5,6.19,2.26,9.29Z"/>
    <path class="cls-9" d="M618.43,515.55c19.85-2.65,42.12-7.08,65.95-14.35,10.35-3.16,20.08-6.58,29.2-10.13-.43-3.27-.86-6.55-1.29-9.82-9.34,3.84-19.41,7.55-30.22,10.95-24.3,7.65-46.9,12.06-66.72,14.55,1.03,2.94,2.06,5.87,3.09,8.81Z"/>
    <path class="cls-9" d="M485.36,47.71c52.14,51.11,87.61,99.52,110.96,136.02,0,0,25.44,35.69,74.59,143.99,26.56,58.52,13.13,39.96,36.83,92.48,10.38,22.99,14.57,30.14,12.22,38.97-8.11,30.52-82.53,37.1-137.72,37.98-47.67-136.18-95.34-272.37-143.01-408.55,15.38-13.63,30.75-27.26,46.13-40.89Z"/>
    <path class="cls-9" d="M242.32,45.43c-51.43,48.07-86.17,94.26-108.79,128.78-30.02,45.8-47.66,84.66-74.59,143.99-26.56,58.52-13.13,39.96-36.83,92.48-10.38,22.99-14.57,30.14-12.22,38.97,8.11,30.52,82.53,37.1,137.72,37.98,47.67-136.18,95.34-272.37,143.01-408.55l-48.29-33.66Z"/>
    <path class="cls-11" d="M365.57,607c61.1-.16,90.93-3.95,100.85-5.53,25.62-4.08,43.71-9.16,55.96-12.65,25.18-7.16,42.32-15.13,47.53-17.51,19.98-9.12,30.01-13.84,31.93-21.8,1.56-6.45-5.16-61.29-5.29-69.75-.82-51.22-6.8-117.94-26.95-193.26-2.5-9.34-35.76-132.75-67.71-170.98-2.57-3.08-10.64-11.91-15.27-26.03-5.43-16.57-3.45-31.99-1.25-41.78-8.29-6.53-16.69-13.08-25.19-19.65-7.61-5.87-15.18-11.66-22.73-17.36-14.66.71-29.32,1.41-43.97,2.12-5.18,5.16-17.94,7.79-30.87,7.91-12.93-.12-25.69-2.75-30.87-7.91-14.65-.71-29.31-1.41-43.97-2.12-15.15,11.58-30.3,23.15-45.45,34.73,1.56,10.2,2.62,26.51-3.72,44.06-5.18,14.34-13.09,23.42-15.27,26.03-31.95,38.23-65.22,161.64-67.71,170.98-20.15,75.32-26.13,142.04-26.95,193.26-.27,17-.59,13.34-2.86,38.26-1.26,13.8-1.78,16.83-.66,21.47,3.89,16.15,21.22,25.24,32.27,30.5,51.84,24.69,101.39,31.48,101.39,31.48,42.33,5.81,74.61,5.62,106.77,5.53Z"/>
    <path class="cls-11" d="M366.16,72.43c-38.06,1.75-71.89-30.54-71.18-70.93h135.98c.75,37.93-28.99,69.28-64.8,70.93Z"/>
    <path class="cls-8" d="M365.85,65.59c-34.38,1.58-64.93-27.59-64.29-64.06h122.82c.68,34.26-26.18,62.57-58.53,64.06Z"/>
    <path class="cls-6" d="M365.36,57.27c-28.53,1.32-53.89-22.9-53.37-53.18h101.95c.56,28.44-21.73,51.94-48.58,53.18Z"/>
    <path class="cls-10" d="M365.07,51.98c-24.99,1.15-47.2-20.06-46.74-46.57h89.29c.49,24.9-19.03,45.49-42.55,46.57Z"/>
    <rect class="cls-14" x="148.87" y="386.65" width="13.55" height="97.55" transform="translate(66.54 -18.32) rotate(8.56)"/>
    <rect class="cls-14" x="561.56" y="386.65" width="13.55" height="97.55" transform="translate(1195.16 781.41) rotate(171.44)"/>
    <circle class="cls-2" cx="385.07" cy="102.14" r="7.63"/>
    <circle class="cls-2" cx="385.07" cy="208.21" r="7.63"/>
    <circle class="cls-2" cx="385.07" cy="314.28" r="7.63"/>
    <circle class="cls-2" cx="385.07" cy="420.35" r="7.63"/>
    <circle class="cls-2" cx="385.07" cy="526.42" r="7.63"/>
    <circle class="cls-2" cx="385.07" cy="620.66" r="7.63"/>
    <path class="cls-12" d="M568.02,571.57c.32,2.64.45,5.63.18,8.89-.08,1.03-.2,2.04-.35,3.02-.67,4.41-1.92,8.26-3.27,11.42-21.94,9.86-51.81,21.08-89.26,29.4-6.48,1.44-16.45,3.58-29.24,5.71-103.4,17.16-196.71-5.71-196.71-5.71-21.32-5.19-52.9-14.62-87.17-32.19-1.34-3.22-2.6-6.95-3.49-11.13-.86-4.04-1.22-7.74-1.3-11,46.36,22.01,88.28,30.76,114.57,34.67,33.9,5.03,62.42,5.05,90.36,5.05,26.06,0,55.31,0,90.36-5.05,26.83-3.86,68.69-12.34,115.31-33.08Z"/>
    <path class="cls-7" d="M568.2,579.85c0,.7-.78,6.25-1.37,7.93-23.02,10.22-57.96,23.26-103.66,31.84-13.14,2.47-50.57,8.93-100.21,8.95-35.29.01-61.74-3.24-67.88-4.03-29.31-3.75-79.22-13.01-134.26-39.1-.72-2.59-1.44-5.18-2.16-7.77,27.89,12.95,98.46,41.97,197.94,43.68,107.01,1.84,183.8-29.02,211.59-41.49Z"/>
    <path class="cls-5" d="M439.23,631.44c-20.64,2.76-46.86,5.07-77.26,4.94-30.42-.13-56.61-2.67-77.2-5.61,1.34-8.7,2.69-17.41,4.03-26.11,22.54,1.28,47.12,2.08,73.46,2.07,26.54-.01,51.27-.85,73.95-2.17,1.01,8.96,2.01,17.93,3.02,26.89Z"/>
    <circle class="cls-2" cx="385.07" cy="621.62" r="7.63"/>
    <text class="cls-3" transform="translate(439.23 200.58) scale(1.17 1)"><tspan x="0" y="0">s</tspan></text>
    <path class="cls-1" d="M147.6,156.04c3.27,1.65,6.55,3.29,9.82,4.93l10.63-21.3c-2.08-1.04-4.16-2.08-6.24-3.11-2.59,3.38-5.19,6.86-7.79,10.45-2.21,3.04-4.34,6.05-6.41,9.03Z"/>
    <path class="cls-15" d="M194.15,152.7l-10.56-5.27-8.43,16.89c-.04.09-.26.49-.49.89-1.44,2.59-2.32,2.81-3.14,2.79l11.99,5.98,10.63-21.3Z"/>
    <path class="cls-16" d="M169.18,144.6c-3.94,7.9-10.53,21.11-10.53,21.11l-.16.35c-.88,1.91-.09,4.17,1.8,5.12s4.12.22,5.14-1.56l.21-.41,10.53-21.11-6.99-3.49Z"/>
    <line class="cls-13" x1="364.22" y1="76.77" x2="364.22" y2="605.83"/>
  </g>
</svg>