<?xml version="1.0" encoding="UTF-8"?>
<svg id="_레이어_2" data-name="레이어_2" xmlns="http://www.w3.org/2000/svg" xmlns:xlink="http://www.w3.org/1999/xlink" viewBox="0 0 756.59 237.65">
  <defs>
    <style>
      .cls-1 {
        fill: #fff;
      }

      .cls-2 {
        fill: #cecece;
      }

      .cls-3 {
        fill: #e0e0e0;
      }

      .cls-4 {
        fill: none;
        stroke: #001f51;
        stroke-miterlimit: 10;
        stroke-width: 5px;
      }

      .cls-5 {
        fill: url(#_무제_그라디언트_70-2);
      }

      .cls-6 {
        fill: url(#_무제_그라디언트_70);
      }
    </style>
    <linearGradient id="_무제_그라디언트_70" data-name="무제 그라디언트 70" x1="-7578.02" y1="-4118.32" x2="-7578.02" y2="-4292.29" gradientTransform="translate(-7003.38 -4091.85) rotate(-180)" gradientUnits="userSpaceOnUse">
      <stop offset=".26" stop-color="#333"/>
      <stop offset=".5" stop-color="#333"/>
      <stop offset=".5" stop-color="#999"/>
    </linearGradient>
    <linearGradient id="_무제_그라디언트_70-2" data-name="무제 그라디언트 70" x1="2038.04" y1="-4118.32" x2="2038.04" y2="-4292.29" gradientTransform="translate(-1856.09 -4091.85) scale(1 -1)" xlink:href="#_무제_그라디언트_70"/>
  </defs>
  <g id="_레이어_1-2" data-name="레이어_1">
    <path class="cls-4" d="M496.48,113.23c0-48.04,33.94-86.99,75.82-86.99s75.82,38.95,75.82,86.99c0,2.76-.11,5.49-.33,8.19-3.6,44.2-36.02,78.8-75.48,78.8-41.87,0-75.82-38.95-75.82-86.99Z"/>
    <path d="M755.06,124.82c1.93,0,1.93-3,0-3s-1.93,3,0,3h0Z"/>
    <path class="cls-1" d="M727.17,120.26c1.09,7.6,4.24,36.33-12.72,63.21-7.32,11.6-16.82,20.38-27.34,27.01-7.68,4.84-33.06,20.65-99.32,18.71-51.73-1.52-77.6-2.28-99.27-18.94-26.33-20.23-42.31-54.92-40.1-90,2.47-39.19,26.69-63.94,35.06-72.23,37.38-37.04,87.07-37.6,104.32-36.7,65.96,3.43,131.38,53.08,139.38,108.93Z"/>
    <path d="M696.49,203.74c-15.8,11.09-38.25,23.65-66.94,29.87-74.87,16.24-141.52-21.68-141.03-23.36.42-1.41,48.36,22.98,115.82,18.05,38.7-2.82,70.2-14.3,92.15-24.57Z"/>
    <path class="cls-3" d="M469.64,64.16c13.15-13.75,39.92-37.93,80.33-49.29,60.76-17.08,152.54-5.27,177.23,54.03,15.93,38.27-1.96,79-9.69,94.24.43-13.72-.8-41.61-19.71-63.08-16.92-19.21-39.96-24.18-69.95-28.4-37.32-5.26-90.91-10.15-158.22-7.49Z"/>
    <circle class="cls-1" cx="594.18" cy="177.84" r="4.29"/>
    <path class="cls-6" d="M498.83,113.45c0-48.04,33.94-86.99,75.82-86.99s75.82,38.95,75.82,86.99c0,2.76-.11,5.49-.33,8.19-3.6,44.2-36.02,78.8-75.48,78.8-41.87,0-75.82-38.95-75.82-86.99Z"/>
    <ellipse cx="553.19" cy="120.25" rx="14.48" ry="39.8"/>
    <ellipse class="cls-2" cx="572.3" cy="182.12" rx="44.91" ry="15.22"/>
    <path class="cls-4" d="M496.48,113.23c0-48.04,33.94-86.99,75.82-86.99s75.82,38.95,75.82,86.99c0,2.76-.11,5.49-.33,8.19-3.6,44.2-36.02,78.8-75.48,78.8-41.87,0-75.82-38.95-75.82-86.99Z"/>
    <path d="M467.97,66.12c15.06-17.35,38.95-39.31,73.39-53.14,103.86-41.71,205.57,29.86,215.23,36.88-4.99,30.61-10.71,56.61-15.85,77.28-4.6,18.47-9.19,34.51-21.25,51.63-5.46,7.76-10.9,13.53-14.83,17.34,8.04-23.99,15.33-54.34,17.25-89.78.7-12.91.61-25.06,0-36.33-23.55-11.27-62.54-26.24-112.73-29.28-64.91-3.94-115.41,14.06-141.21,25.4Z"/>
    <circle class="cls-1" cx="588.17" cy="152.74" r="7.6"/>
    <path class="cls-4" d="M260.11,113.23c0-48.04-33.94-86.99-75.82-86.99-41.87,0-75.82,38.95-75.82,86.99,0,2.76.11,5.49.33,8.19,3.6,44.2,36.02,78.8,75.48,78.8,41.87,0,75.82-38.95,75.82-86.99Z"/>
    <path class="cls-1" d="M29.42,120.26c-1.09,7.6-4.24,36.33,12.72,63.21,7.32,11.6,16.82,20.38,27.34,27.01,7.68,4.84,33.06,20.65,99.32,18.71,51.73-1.52,77.6-2.28,99.27-18.94,26.33-20.23,42.31-54.92,40.1-90-2.47-39.19-26.69-63.94-35.06-72.23C235.74,11,186.06,10.43,168.8,11.33,102.84,14.77,37.42,64.41,29.42,120.26Z"/>
    <path d="M60.11,203.74c15.8,11.09,38.25,23.65,66.94,29.87,74.87,16.24,141.52-21.68,141.03-23.36-.42-1.41-48.36,22.98-115.82,18.05-38.7-2.82-70.2-14.3-92.15-24.57Z"/>
    <path class="cls-3" d="M286.96,64.16c-13.15-13.75-39.92-37.93-80.33-49.29C145.86-2.2,54.08,9.6,29.39,68.9c-15.93,38.27,1.96,79,9.69,94.24-.43-13.72.8-41.61,19.71-63.08,16.92-19.21,39.96-24.18,69.95-28.4,37.32-5.26,90.91-10.15,158.22-7.49Z"/>
    <circle class="cls-1" cx="162.41" cy="177.84" r="4.29"/>
    <path class="cls-5" d="M257.76,113.45c0-48.04-33.94-86.99-75.82-86.99-41.87,0-75.82,38.95-75.82,86.99,0,2.76.11,5.49.33,8.19,3.6,44.2,36.02,78.8,75.48,78.8,41.87,0,75.82-38.95,75.82-86.99Z"/>
    <ellipse cx="203.4" cy="120.25" rx="14.48" ry="39.8"/>
    <ellipse class="cls-2" cx="184.29" cy="182.12" rx="44.91" ry="15.22"/>
    <path class="cls-4" d="M260.11,113.23c0-48.04-33.94-86.99-75.82-86.99-41.87,0-75.82,38.95-75.82,86.99,0,2.76.11,5.49.33,8.19,3.6,44.2,36.02,78.8,75.48,78.8,41.87,0,75.82-38.95,75.82-86.99Z"/>
    <path d="M288.62,66.12c-15.06-17.35-38.95-39.31-73.39-53.14C111.37-28.73,9.66,42.83,0,49.86c4.99,30.61,10.71,56.61,15.85,77.28,4.6,18.47,9.19,34.51,21.25,51.63,5.46,7.76,10.9,13.53,14.83,17.34-8.04-23.99-15.33-54.34-17.25-89.78-.7-12.91-.61-25.06,0-36.33,23.55-11.27,62.54-26.24,112.73-29.28,64.91-3.94,115.41,14.06,141.21,25.4Z"/>
    <circle class="cls-1" cx="168.42" cy="152.74" r="7.6"/>
  </g>
</svg>