<?xml version="1.0" encoding="UTF-8"?>
<svg id="_레이어_2" data-name="레이어_2" xmlns="http://www.w3.org/2000/svg" xmlns:xlink="http://www.w3.org/1999/xlink" viewBox="0 0 855.94 237.65">
  <defs>
    <style>
      .cls-1 {
        fill: #fff;
      }

      .cls-2 {
        fill: #cecece;
      }

      .cls-3 {
        fill: #e0e0e0;
      }

      .cls-4 {
        fill: none;
        stroke: #001f51;
        stroke-miterlimit: 10;
        stroke-width: 5px;
      }

      .cls-5 {
        fill: url(#_무제_그라디언트_70-2);
      }

      .cls-6 {
        fill: url(#_무제_그라디언트_70);
      }
    </style>
    <linearGradient id="_무제_그라디언트_70" data-name="무제 그라디언트 70" x1="-7528.35" y1="-3401.91" x2="-7528.35" y2="-3575.89" gradientTransform="translate(-6904.04 -3375.45) rotate(-180)" gradientUnits="userSpaceOnUse">
      <stop offset=".26" stop-color="#333"/>
      <stop offset=".5" stop-color="#333"/>
      <stop offset=".5" stop-color="#999"/>
    </linearGradient>
    <linearGradient id="_무제_그라디언트_70-2" data-name="무제 그라디언트 70" x1="2087.71" y1="-3401.91" x2="2087.71" y2="-3575.89" gradientTransform="translate(-1856.09 -3375.45) scale(1 -1)" xlink:href="#_무제_그라디언트_70"/>
  </defs>
  <g id="_레이어_1-2" data-name="레이어_1">
    <path class="cls-4" d="M546.16,113.23c0-48.04,33.94-86.99,75.82-86.99s75.82,38.95,75.82,86.99c0,2.76-.11,5.49-.33,8.19-3.6,44.2-36.02,78.8-75.48,78.8-41.87,0-75.82-38.95-75.82-86.99Z"/>
    <path d="M804.73,124.82c1.93,0,1.93-3,0-3s-1.93,3,0,3h0Z"/>
    <path class="cls-1" d="M776.84,120.26c1.09,7.6,4.24,36.33-12.72,63.21-7.32,11.6-16.82,20.38-27.34,27.01-7.68,4.84-33.06,20.65-99.32,18.71-51.73-1.52-77.6-2.28-99.27-18.94-26.33-20.23-42.31-54.92-40.1-90,2.47-39.19,26.69-63.94,35.06-72.23,37.38-37.04,87.07-37.6,104.32-36.7,65.96,3.43,131.38,53.08,139.38,108.93Z"/>
    <path d="M746.16,203.74c-15.8,11.09-38.25,23.65-66.94,29.87-74.87,16.24-141.52-21.68-141.03-23.36.42-1.41,48.36,22.98,115.82,18.05,38.7-2.82,70.2-14.3,92.15-24.57Z"/>
    <path class="cls-3" d="M519.31,64.16c13.15-13.75,39.92-37.93,80.33-49.29,60.76-17.08,152.54-5.27,177.23,54.03,15.93,38.27-1.96,79-9.69,94.24.43-13.72-.8-41.61-19.71-63.08-16.92-19.21-39.96-24.18-69.95-28.4-37.32-5.26-90.91-10.15-158.22-7.49Z"/>
    <circle class="cls-1" cx="643.85" cy="177.84" r="4.29"/>
    <path class="cls-6" d="M548.5,113.45c0-48.04,33.94-86.99,75.82-86.99s75.82,38.95,75.82,86.99c0,2.76-.11,5.49-.33,8.19-3.6,44.2-36.02,78.8-75.48,78.8-41.87,0-75.82-38.95-75.82-86.99Z"/>
    <ellipse cx="602.86" cy="120.25" rx="14.48" ry="39.8"/>
    <ellipse class="cls-2" cx="621.97" cy="182.12" rx="44.91" ry="15.22"/>
    <path class="cls-4" d="M546.16,113.23c0-48.04,33.94-86.99,75.82-86.99s75.82,38.95,75.82,86.99c0,2.76-.11,5.49-.33,8.19-3.6,44.2-36.02,78.8-75.48,78.8-41.87,0-75.82-38.95-75.82-86.99Z"/>
    <path d="M517.64,66.12c15.06-17.35,38.95-39.31,73.39-53.14,103.86-41.71,205.57,29.86,215.23,36.88-4.99,30.61-10.71,56.61-15.85,77.28-4.6,18.47-9.19,34.51-21.25,51.63-5.46,7.76-10.9,13.53-14.83,17.34,8.04-23.99,15.33-54.34,17.25-89.78.7-12.91.61-25.06,0-36.33-23.55-11.27-62.54-26.24-112.73-29.28-64.91-3.94-115.41,14.06-141.21,25.4Z"/>
    <circle class="cls-1" cx="637.84" cy="152.74" r="7.6"/>
    <path class="cls-4" d="M309.78,113.23c0-48.04-33.94-86.99-75.82-86.99-41.87,0-75.82,38.95-75.82,86.99,0,2.76.11,5.49.33,8.19,3.6,44.2,36.02,78.8,75.48,78.8,41.87,0,75.82-38.95,75.82-86.99Z"/>
    <path class="cls-1" d="M79.09,120.26c-1.09,7.6-4.24,36.33,12.72,63.21,7.32,11.6,16.82,20.38,27.34,27.01,7.68,4.84,33.06,20.65,99.32,18.71,51.73-1.52,77.6-2.28,99.27-18.94,26.33-20.23,42.31-54.92,40.1-90-2.47-39.19-26.69-63.94-35.06-72.23C285.41,11,235.73,10.43,218.47,11.33c-65.96,3.43-131.38,53.08-139.38,108.93Z"/>
    <path d="M109.78,203.74c15.8,11.09,38.25,23.65,66.94,29.87,74.87,16.24,141.52-21.68,141.03-23.36-.42-1.41-48.36,22.98-115.82,18.05-38.7-2.82-70.2-14.3-92.15-24.57Z"/>
    <path class="cls-3" d="M336.63,64.16c-13.15-13.75-39.92-37.93-80.33-49.29C195.54-2.2,103.75,9.6,79.07,68.9c-15.93,38.27,1.96,79,9.69,94.24-.43-13.72.8-41.61,19.71-63.08,16.92-19.21,39.96-24.18,69.95-28.4,37.32-5.26,90.91-10.15,158.22-7.49Z"/>
    <circle class="cls-1" cx="212.09" cy="177.84" r="4.29"/>
    <path class="cls-5" d="M307.44,113.45c0-48.04-33.94-86.99-75.82-86.99-41.87,0-75.82,38.95-75.82,86.99,0,2.76.11,5.49.33,8.19,3.6,44.2,36.02,78.8,75.48,78.8,41.87,0,75.82-38.95,75.82-86.99Z"/>
    <ellipse cx="253.07" cy="120.25" rx="14.48" ry="39.8"/>
    <ellipse class="cls-2" cx="233.96" cy="182.12" rx="44.91" ry="15.22"/>
    <path class="cls-4" d="M309.78,113.23c0-48.04-33.94-86.99-75.82-86.99-41.87,0-75.82,38.95-75.82,86.99,0,2.76.11,5.49.33,8.19,3.6,44.2,36.02,78.8,75.48,78.8,41.87,0,75.82-38.95,75.82-86.99Z"/>
    <path d="M338.3,66.12c-15.06-17.35-38.95-39.31-73.39-53.14C161.05-28.73,59.33,42.83,49.67,49.86c4.99,30.61,10.71,56.61,15.85,77.28,4.6,18.47,9.19,34.51,21.25,51.63,5.46,7.76,10.9,13.53,14.83,17.34-8.04-23.99-15.33-54.34-17.25-89.78-.7-12.91-.61-25.06,0-36.33,23.55-11.27,62.54-26.24,112.73-29.28,64.91-3.94,115.41,14.06,141.21,25.4Z"/>
    <circle class="cls-1" cx="218.1" cy="152.74" r="7.6"/>
    <path d="M771.49,39.75c10.03-.32,25.2-2.02,42.17-8.87,20.8-8.39,34.7-20.62,42.28-28.4-2.01,8.42-9.89,36.67-36.33,52.84-7.72,4.72-15.3,7.36-21.7,8.87-8.81-8.15-17.61-16.29-26.42-24.44Z"/>
    <path d="M748.61,26.53c5.46-.18,13.72-1.1,22.97-4.83,11.33-4.57,18.9-11.23,23.02-15.47-1.1,4.58-5.39,19.97-19.78,28.78-4.2,2.57-8.33,4.01-11.81,4.83-4.8-4.44-9.59-8.87-14.39-13.31Z"/>
    <path d="M710.6,10.7c5.34,1.16,13.58,2.27,23.45.91,12.1-1.67,21.06-6.29,26.1-9.39-2.18,4.18-10.09,18.06-26.2,23.09-4.7,1.47-9.06,1.86-12.64,1.81-3.57-5.47-7.14-10.94-10.71-16.41Z"/>
    <path d="M84.45,39.75c-10.03-.32-25.2-2.02-42.17-8.87C21.47,22.49,7.58,10.26,0,2.48c2.01,8.42,9.89,36.67,36.33,52.84,7.72,4.72,15.3,7.36,21.7,8.87,8.81-8.15,17.61-16.29,26.42-24.44Z"/>
    <path d="M107.33,26.53c-5.46-.18-13.72-1.1-22.97-4.83-11.33-4.57-18.9-11.23-23.02-15.47,1.1,4.58,5.39,19.97,19.78,28.78,4.2,2.57,8.33,4.01,11.81,4.83,4.8-4.44,9.59-8.87,14.39-13.31Z"/>
    <path d="M145.33,10.7c-5.34,1.16-13.58,2.27-23.45.91-12.1-1.67-21.06-6.29-26.1-9.39,2.18,4.18,10.09,18.06,26.2,23.09,4.7,1.47,9.06,1.86,12.64,1.81,3.57-5.47,7.14-10.94,10.71-16.41Z"/>
  </g>
</svg>