<?xml version="1.0" encoding="UTF-8"?>
<svg id="_레이어_2" data-name="레이어_2" xmlns="http://www.w3.org/2000/svg" viewBox="0 0 414.81 440.92">
  <defs>
    <style>
      .cls-1, .cls-2, .cls-3, .cls-4, .cls-5 {
        stroke: #000;
      }

      .cls-1, .cls-2, .cls-5 {
        stroke-width: 2.8px;
      }

      .cls-1, .cls-6, .cls-5 {
        stroke-linecap: round;
        stroke-linejoin: round;
      }

      .cls-1, .cls-4 {
        fill: #212121;
      }

      .cls-2 {
        fill: #262626;
      }

      .cls-2, .cls-3, .cls-4, .cls-7, .cls-8 {
        stroke-miterlimit: 10;
      }

      .cls-6 {
        stroke: #4f4f4f;
        stroke-width: 2.86px;
      }

      .cls-6, .cls-7, .cls-8 {
        fill: none;
      }

      .cls-3 {
        fill: #f8efe8;
        stroke-width: 2.55px;
      }

      .cls-4 {
        stroke-width: 2.97px;
      }

      .cls-7 {
        stroke-width: 4.63px;
      }

      .cls-7, .cls-8 {
        stroke: #919191;
        stroke-dasharray: 7.81 7.81 7.81 7.81 7.81 7.81;
      }

      .cls-5 {
        fill: #bcbcbc;
      }

      .cls-8 {
        stroke-width: 3px;
      }
    </style>
  </defs>
  <g id="_레이어_1-2" data-name="레이어_1">
    <path class="cls-3" d="M1.55,1.31c3.49,53.8,11.58,124.91,30.72,199.45,13.61,53.02,66.82,143.71,65.56,171.41-1.1,24.2-16.11,33.34-12.4,45.36,3.93,12.72,26.93,22.55,103.66,15.08,4.55-121.3,9.09-242.61,13.65-363.91,1.37.02,2.75.04,4.12.05,1.82.01,3.61.02,5.41.01,4.55,121.28,9.09,242.57,13.64,363.85,76.72,7.47,99.74-2.36,103.67-15.08,3.71-12.02-11.31-21.16-12.4-45.36-1.26-27.7,51.95-118.39,65.56-171.41,16.98-66.11,25.26-129.53,29.35-180.56.48-4.39.92-8.75,1.34-13.08C275.11-1.94,138.79,4.44,1.55,1.31Z"/>
    <path class="cls-1" d="M225.24,438.3c43.2.4,86.4.81,129.6,1.21,2-.58,4.86-1.73,7.3-4.18,7.5-7.55,4.09-20.5,3.16-23.61-.07-.23-.1-.34-.15-.5-2.06-6.27-8.04-9.38-18.97-14.15-13.24-5.78-19.97-8.68-25.57-9.08-4.71-.34-6.47.27-13.76.96-9.59.91-16.43.76-30.09.47-13.66-.3-31.28-1.38-51.9-4.46.13,17.78.25,35.56.38,53.35Z"/>
    <line class="cls-7" x1="223.85" y1="322" x2="216.05" y2="137.73"/>
    <path class="cls-2" d="M394.14,172.43c-10.27,57.79-23.6,109.65-37.65,154.9.88,1.7,1.63,3.65,2.09,5.84,2.38,11.4-4.82,21.11-6.75,23.55-42.71.66-85.41,1.32-128.11,1.98-6.04-162.94-11.65-228.05-16.79-228.05-5.14,0-10.68,65.12-16.55,228.05-42.7-.66-85.4-1.32-128.1-1.98-1.94-2.44-9.14-12.15-6.75-23.55.45-2.19,1.2-4.14,2.08-5.84-14.05-45.25-27.38-97.11-37.65-154.9C8.98,110.64,3.6,53.92,1.46,3.99c68.49-.44,136.98-.88,205.47-1.32-.37,7.97-.74,15.94-1.11,23.91h.14c.78,0,1.55.01,2.32.03l-1.11-23.94,205.47,1.32c-2.14,49.93-7.52,106.65-18.5,168.44Z"/>
    <path class="cls-1" d="M206.99,103.57c-2.47-1.75-9.18-7.11-13.44-19.11-6.04-17-2.43-33.91-1.79-36.74h15.14c.03,18.62.06,37.24.09,55.86Z"/>
    <path class="cls-1" d="M189.25,438.3c-43.2.4-86.4.81-129.6,1.21-2-.58-4.86-1.73-7.3-4.18-7.5-7.55-4.09-20.5-3.16-23.61.07-.23.1-.34.15-.5,2.06-6.27,8.04-9.38,18.97-14.15,13.24-5.78,19.97-8.68,25.57-9.08,4.71-.34,6.47.27,13.76.96,9.59.91,16.43.76,30.09.47,13.66-.3,31.28-1.38,51.9-4.46-.13,17.78-.25,35.56-.38,53.35Z"/>
    <path class="cls-5" d="M190.81,365.2c-40.95.18-81.89.37-122.84.55-2.59-.52-6.84-1.77-11.01-5.06-.61-.48-13.03-10.61-10.38-23.64.39-1.93,1.63-6.45,6.23-10.82,46.08.17,92.16.33,138.23.5-.08,12.83-.16,25.65-.23,38.48Z"/>
    <path class="cls-8" d="M181.44,322c-.46-29.25.03-60.51,1.89-93.53,2.01-35.76,5.39-69.3,9.58-100.4"/>
    <path class="cls-8" d="M230.51,322c.46-29.25-.03-60.51-1.89-93.53-2.01-35.76-5.39-69.3-9.58-100.4"/>
    <path class="cls-5" d="M222.84,365.2c40.95.18,81.89.37,122.84.55,2.59-.52,6.84-1.77,11.01-5.06.61-.48,13.03-10.61,10.38-23.64-.39-1.93-1.63-6.45-6.23-10.82-46.08.17-92.16.33-138.23.5.08,12.83.16,25.65.23,38.48Z"/>
    <path class="cls-4" d="M206.99,131.45v-27.88"/>
    <path class="cls-6" d="M54.2,56.82c-1.92,5.17-5.95,13.98-14.2,22.42-8.79,8.99-18.17,13.26-23.43,15.21"/>
    <path class="cls-6" d="M357.15,56.82c1.92,5.17,5.95,13.98,14.2,22.42,8.79,8.99,18.17,13.26,23.43,15.21"/>
    <polyline class="cls-8" points="181.28 333.33 181.28 361.57 181.28 363.06"/>
    <polyline class="cls-8" points="230.67 333.33 230.67 361.57 230.67 363.06"/>
  </g>
</svg>