<?xml version="1.0" encoding="UTF-8"?>
<svg id="_레이어_2" data-name="레이어_2" xmlns="http://www.w3.org/2000/svg" viewBox="0 0 1058.58 943.55">
  <defs>
    <style>
      .cls-1 {
        stroke-width: 2.7px;
      }

      .cls-1, .cls-2 {
        fill: #fef5f0;
        stroke: #000;
        stroke-miterlimit: 10;
      }

      .cls-3 {
        fill: #898989;
      }

      .cls-4 {
        fill: #ff996c;
      }

      .cls-4, .cls-5 {
        opacity: .3;
      }

      .cls-2 {
        stroke-width: 2.86px;
      }

      .cls-6 {
        fill: #915764;
      }

      .cls-5 {
        fill: #ffb699;
      }
    </style>
  </defs>
  <g id="_레이어_1-2" data-name="레이어_1">
    <path class="cls-1" d="M127.04,747.89c-9.28,11.39-14.98,23.34-16.62,35.67-50.11-26.6-78.28-77.31-82.5-85.19-3.22-6-53.42-102.62-6.94-157.54,9.43-11.15,21.57-19.08,35.14-24.51,11.91,102.19,45.74,182.24,70.92,231.57Z"/>
    <path class="cls-1" d="M1030.66,698.37c-4.48,8.35-35.79,64.69-91.56,89.62-.74-13.91-6.65-27.36-17.04-40.11,2.84-4.83,7.09-12.22,11.98-21.36,43.64-81.54,61.35-159.01,68.67-210.1,13.47,5.43,25.51,13.33,34.88,24.41,46.48,54.92-3.72,151.54-6.93,157.54Z"/>
    <path class="cls-2" d="M1007.88,461.9c-.4,9.42-1.45,28.56-5.17,54.52-7.32,51.09-25.03,128.56-68.67,210.1-4.89,9.14-9.14,16.53-11.98,21.36,10.39,12.75,16.3,26.2,17.04,40.11.05,1,.08,2,.08,3,0,83.46-185.64,151.13-414.63,151.13s-414.62-67.67-414.62-151.13c0-2.49.17-4.97.49-7.43,1.64-12.33,7.34-24.28,16.62-35.67-25.18-49.33-59.01-129.38-70.92-231.57-2.52-21.53-4.06-44.04-4.33-67.46-.57-48.26-1.32-111.38,23.39-175.88C137.34,110.71,336.62,2.32,524.55,1.43c200.61-.95,406.91,120.51,464.98,289.22,22.83,66.34,20.02,132.07,18.35,171.25Z"/>
    <ellipse class="cls-4" cx="830.22" cy="775.57" rx="87.85" ry="58.34"/>
    <path class="cls-6" d="M462.41,825.96c29.16,23.17,68.87,30.97,103.92,18.03,11.54-4.1,22.38-10.3,32.49-18.03-7.75,10.13-18.28,18.28-30.08,23.84-35.29,17.07-82.36,7.6-106.33-23.84h0Z"/>
    <path class="cls-3" d="M624.71,504.63c63.85-29.76,138.32-33.56,206.5-17.83,7.04,1.56,15.72,4.01,22.62,6.09,8.66,2.49,18.04,6,26.49,9.2,11.55,4.67,22.9,9.78,33.76,15.79.19.08.27.31.17.49-.09.16-.28.22-.44.15-68.08-28.72-143.69-40.44-217.09-30.56-24.42,3.35-48.51,9.14-71.77,17.32-.18.06-.38-.03-.45-.21-.06-.18.03-.38.21-.45h0Z"/>
    <ellipse class="cls-4" cx="228.44" cy="775.57" rx="87.85" ry="58.34"/>
    <path class="cls-3" d="M416.05,500.33c-40.39-10.07-81.06-15.52-122.47-15.32-31.89.21-63.85,3.75-95.12,9.98-11.8,2.37-24.08,5.24-35.75,8.32-11.89,3.08-23.66,6.66-35.53,10.25-.19.08-.41-.02-.47-.22-.05-.17.04-.35.2-.42,45.44-19.33,94.19-31.39,143.53-34.12,49.36-2.6,99.28,4.17,145.84,20.87.18.06.28.26.21.45-.07.18-.26.27-.45.21h0Z"/>
    <path class="cls-5" d="M530.04,735.01l7.38-12.81c2.1-3.64-.53-8.2-4.74-8.2h-14.77c-4.21,0-6.84,4.55-4.74,8.2l7.38,12.81c2.1,3.65,7.37,3.65,9.47,0Z"/>
  </g>
</svg>