<?xml version="1.0" encoding="UTF-8"?>
<svg id="_레이어_2" data-name="레이어_2" xmlns="http://www.w3.org/2000/svg" viewBox="0 0 1098.61 794.17">
  <defs>
    <style>
      .cls-1 {
        fill: #fff;
      }

      .cls-2, .cls-3 {
        fill: #f9f9f9;
      }

      .cls-3 {
        stroke: #565656;
        stroke-linecap: round;
        stroke-linejoin: round;
        stroke-width: 9px;
      }

      .cls-4 {
        fill: #d8d8d8;
      }

      .cls-5 {
        fill: #dbdbdb;
      }

      .cls-6 {
        fill: #f9c9b4;
      }

      .cls-7 {
        fill: #565656;
      }

      .cls-8 {
        fill: #b7b7b7;
      }
    </style>
  </defs>
  <g id="_레이어_1-2" data-name="레이어_1">
    <g>
      <path class="cls-2" d="M793.09,108.89c-11.49-13.59-32.77-36.44-64.4-57.14C581.57-44.47,371.54,11.38,243.18,90.39c-38.92,23.96-99.01,61.81-148.62,134.75C-13.42,383.89,23.36,568.99,34.44,624.78c13.93,70.1,37.64,125.08,56.1,161.28-8.17-34.53-15.41-83.49-9.87-141.46,9.67-101.16,52.93-174.13,77.94-210.05"/>
      <path class="cls-7" d="M792.89,109.05C693.11-8.36,538.34-16.51,398.95,23.54c-50.1,14.59-98.78,35.14-143.84,61.46-49.64,29.09-96.99,63.39-133.83,107.97-12.67,14.89-24.34,31.49-34.75,48.03-2.05,3.43-6.17,10.55-8.2,13.95-3.04,5.37-5.98,11.2-8.9,16.65-41.07,81.42-53.18,174.91-45.39,265.14,5.25,57.28,16.23,114.32,34.92,168.78,9.39,27.22,20.62,53.8,33.61,79.49,0,0-4.25,1.56-4.25,1.56-12.34-52.64-14.85-107.56-7.08-161.07,10.09-68.62,36.99-134.65,77.17-191.12.18-.26.6.03.41.29-8.63,12.71-16.64,25.83-24,39.31-7.35,13.48-14,27.33-19.98,41.45-11.71,28.23-20.9,57.83-26.53,87.88-11.51,60.1-9.88,122.73,4.44,182.21.29,1.22-.46,2.45-1.69,2.75-1.04.25-2.09-.26-2.56-1.18-13.23-25.81-24.81-52.5-34.3-79.93-27.8-82.3-41.23-170.15-36.02-257,4.09-62.41,19.37-124.45,47.74-180.34,2.99-5.49,5.96-11.36,9.04-16.78,2.06-3.33,6.37-10.9,8.32-14.06,10.58-16.66,22.39-33.36,35.24-48.35,37.23-44.74,85.06-79.17,135.06-108.24,45.35-26.28,94.3-46.78,144.68-61.23C469.43,1.27,545.44-7.17,618.44,7.18c10.2,1.93,21.69,4.79,31.61,7.81,6.64,1.76,14.21,4.71,20.6,6.86,5.16,1.98,10,4.12,15.09,6.13,6.08,2.77,9.32,4.44,14.73,6.94,0,0,9.55,5.16,9.55,5.16l4.77,2.59c5.16,3.12,9.22,5.72,13.86,8.54,24.21,15.88,45.98,35.39,64.62,57.51.09.11.08.26-.03.35-.11.09-.26.08-.35-.03h0Z"/>
    </g>
    <g>
      <path class="cls-2" d="M955.46,428.59c23.83,39.75,64.41,121.06,60.29,227.26-2.16,55.74-15.99,101.81-29.42,134.84,27.61-29.86,66.55-79.98,90.11-149.99,37.78-112.25,12.39-205.78-.98-252.39-15.68-54.65-62.47-213.53-206.57-264.34-30.16-10.63-57.31-13.96-75.8-15.08"/>
      <path class="cls-7" d="M959.75,426.02c66.83,112.37,80.06,244.5,29.8,365.97,0,0-5.77-3.67-5.77-3.67,12.11-13.01,23.44-26.74,33.92-41.1,31.33-43.13,54.66-92.26,66.64-144.3,16.69-69.63,10.49-142.9-9.7-211.16-23.16-85.4-62.04-171.37-133.11-227.25-42.16-33.4-94.87-52.42-148.44-55.63,53.72,2.78,106.7,21.45,149.24,54.6,86.29,67.31,126.18,175.87,148.54,279.64,24.01,116.6-8.83,237.95-84.31,329.42-5.7,6.99-11.59,13.84-17.68,20.49-1.29,1.41-3.49,1.51-4.91.22-1.11-1.01-1.41-2.58-.87-3.88,8.7-21.69,15.56-44.1,20.43-66.95,12.96-60.83,10.69-124.83-6.1-184.67-3.93-14.47-9.39-30.15-14.98-44.12-8.75-21.61-19.25-42.5-31.28-62.46-3.27-5.77,5-10.77,8.58-5.14h0Z"/>
    </g>
    <path class="cls-6" d="M152.1,214.81c-7.31,16.04-14.96,31.91-23.43,47.36-5.17,9.43-10.34,18.87-15.31,28.42,9.67-16.99,19.46-33.91,29.42-50.73,3.18-8.33,6.34-16.65,9.32-25.04Z"/>
    <path class="cls-6" d="M129.65,282.95c-.08-.1-.16-.19-.23-.29-10,17.42-19.88,34.92-29.7,52.44,2.38-1.18,4.78-2.31,7.2-3.39,4.71-10.58,9.56-21.1,14.55-31.6,2.72-5.73,5.45-11.45,8.19-17.17Z"/>
    <path class="cls-6" d="M51.35,363.18l-.02.04c-.45,1.57-.89,3.13-1.32,4.7.46-1.58.9-3.16,1.34-4.74Z"/>
    <path class="cls-6" d="M115.02,338.82c-1.53,3.45-3.04,6.91-4.55,10.37,3.49-4.33,7.07-8.6,10.75-12.77-2.08.76-4.15,1.56-6.2,2.4Z"/>
    <path class="cls-6" d="M174.05,212.88c-2.57,5.47-5.15,10.94-7.74,16.4,7.38-9.99,14.61-20.08,21.67-30.29,4.54-8.12,8.61-16.5,12.21-25.12-2.99,1.95-5.94,3.96-8.84,6.04-2.63,4.11-5.25,8.23-7.85,12.35-3.13,6.89-6.24,13.78-9.45,20.62Z"/>
    <path class="cls-6" d="M90.35,351.54c-.97,2.8-1.95,5.59-2.93,8.39.65.77,1.02,1.85.9,3.27-.45,5.44-1.03,10.86-1.7,16.26.08,0,.17,0,.25,0,4.48-11.41,9.15-22.72,13.99-33.95-3.59,1.9-7.09,3.91-10.51,6.03Z"/>
    <path class="cls-6" d="M886.39,207.44c.13.39.27.79.4,1.18,7.25,6.27,14.5,12.56,21.72,18.86.12-.01.23-.03.35-.05-5.02-6.83-9.99-13.69-14.94-20.58-2.51.19-5.02.39-7.54.58Z"/>
    <path class="cls-6" d="M987,327.26c-10.67-12.77-21.17-25.69-31.5-38.73-5.88-3.5-11.65-7.18-17.3-11.03,15.99,16.78,32.16,33.37,48.51,49.77.1,0,.19,0,.29-.01Z"/>
    <path class="cls-6" d="M386.41,252.18c4.85,16.7,15.71,28.19,34.7,27.32,11.9-.55,23.68-4.82,34.43-9.69,3-1.36,5.14-2.48,8.37-2.74,4.2-.34,8.64.09,12.86.12,8.57.05,17.15.04,25.72-.04,59.67-.5,119.32-3.96,178.63-10.58,30.08-3.36,59.92-8.4,89.95-12.03,29.79-3.6,59.59-7.21,89.37-10.93,6.85-.86,13.71-1.72,20.56-2.59-11.74-6.94-23.55-13.76-35.41-20.49-15.67,1.17-31.33,2.34-47,3.5-110.72,8.16-221.48,15.93-332.16,24.71-6.48.51-6.29-9.33,0-10,67.87-7.27,135.81-13.92,203.77-20.27,49.19-4.6,98.4-9.04,147.6-13.47-1.81-1-3.63-2-5.44-3.01-60.47,3.12-120.98,5.63-181.44,8.93-52.65,2.87-105.28,5.97-157.91,9.19-29.26,13.22-58.16,27.22-86.62,42.08Z"/>
    <path class="cls-6" d="M1056.38,587.82c-3.02-10.8-5.8-21.67-8.44-32.57-.47,6.8-1.17,13.57-2.29,20.27-.9,5.38-2.29,13.8-6.94,17.75-.51,3.56-1.02,7.12-1.52,10.68,3.37,11.98,1.45,25.47-.19,37.56,6.22-17.97,12.73-35.86,19.39-53.69Z"/>
    <path class="cls-6" d="M1033.51,560.64c1.81-11.14,3.69-22.27,5.64-33.39.06-2.94.1-5.88.12-8.82-3.4-14.39-6.73-28.82-9.24-43.35-4.25-24.63-6.53-52.14-15.34-76.41,3.9,54.24,10.58,108.22,18.82,161.97Z"/>
    <path class="cls-6" d="M1052.23,510.68c-.66,3.59-1.31,7.19-1.95,10.79.91,3.85,1.81,7.71,2.7,11.56,1.03,4.51,2.09,9.01,3.16,13.51-1.3-11.94-2.66-23.89-3.9-35.86Z"/>
    <path class="cls-6" d="M547.56,178.33c-13.05,5.24-26.04,10.63-38.97,16.15,91.82-6.33,183.73-11.73,275.57-17.97-31.46-17.09-63.21-33.76-95.36-49.38-19.43,8.42-39.4,15.59-59.73,21.51-27.78,8.09-54.66,18.9-81.51,29.69Z"/>
    <path class="cls-6" d="M835.59,193.38c3.57-.32,7.15-.64,10.73-.97-.64-.72-1.29-1.44-1.93-2.17-4.38.25-8.75.48-13.13.72,1.44.8,2.89,1.61,4.33,2.41Z"/>
    <g>
      <path class="cls-2" d="M25.64,571.93c4.89,18.7,11.71,55.76-.35,98.98-6.16,22.09-15.49,39.43-23.56,51.74,27.75-6.49,110.23-29.6,171.74-107.67,37.45-47.53,51.75-95.9,57.71-124.23"/>
      <path class="cls-7" d="M28.05,571.3c13.45,51.88,4.99,107.61-24.89,152.29,0,0-1.83-2.61-1.83-2.61,13.93-3.18,27.63-7.34,41.01-12.4,67.16-24.97,125.27-73.9,159.15-137.28,13.63-25.24,23.6-52.47,29.69-80.54-5.81,28.13-15.51,55.49-28.93,80.94-33.43,64.08-91.52,113.91-158.83,139.68-13.45,5.24-27.25,9.58-41.3,12.94-1.45.38-2.71-1.38-1.83-2.61,17.7-27.17,27.97-59.09,29.29-91.48.29-6.28.22-13.16-.17-19.41-.77-12.93-2.9-25.76-6.21-38.27-.77-3.16,3.92-4.49,4.84-1.25h0Z"/>
    </g>
    <polyline class="cls-3" points="106.45 303.3 94.3 500.12 315.47 336.22"/>
    <path class="cls-2" d="M748.94,331.71c-9.01-9.77-11.66-21.98-12.55-30.28-3.47,3.03-9.02,8.16-15.1,15.26-5.44,6.35-8.9,11.46-9.47,12.29-18.34,26.47-81.12,52.28-81.12,52.28-26.71,14.9-60.91,45.05-89.23,112.95-125.42-72.87-194.65-68.29-235.35-46.24-68.15,36.91-77.56,134.25-180.08,178.35-26.44,11.37-50.41,15.49-66.66,17.17-10.04-41.39-47.79-227.5,60.39-398.74C239.96,54.46,485.98-5.38,657.23,43.71c56.55,16.21,97.2,42.23,128.92,62.53,140.06,89.64,212.4,212.7,246.55,283.5,0,0,45.11,106.24,13.16,277.85-.68,3.64-2.68,14.37-8.59,15.85-4.55,1.14-9.34-3.7-13.54-7.93-33.04-33.21-23.97-20.82-31.05-30.72-29.72-41.59-40.79-62.17-57.25-82.79-37.34-46.78-84.53-71.35-91.47-98.95-.57-2.25-3.41-14.27-8.95-30.43-1.78-5.19-3.93-10.91-6.59-17.26-19.17-45.71-31.61-59.27-37.43-64.29-16.18-13.95-29-5.22-42.06-19.38Z"/>
    <g>
      <path class="cls-2" d="M599.34,215.2c1.99-6.83,16.1-52.8,57.68-79.79,35.43-23,76.9-23.19,106.35-.61"/>
      <path class="cls-4" d="M598.59,214.98c5.18-22.09,15.42-43.04,29.7-60.73,4.31-5.19,9.28-10.68,14.41-15.03,2.93-2.83,7.66-6.23,10.93-8.75,17.51-11.95,38.21-21.64,60.01-20.25,18.95.96,38.33,9.11,50.21,23.96.46.68-.13,1.56-.95,1.24-24.09-10.79-48.32-11.94-73.62-6.27-12.08,2.44-24.19,7.78-34.45,14.82-18.01,12.06-32.47,28.83-43.32,47.56-2.2,3.75-4.3,7.75-6.18,11.69-1.92,3.98-3.69,8.04-5.23,12.2-.15.41-.6.62-1.01.47-.37-.14-.58-.53-.49-.91h0Z"/>
    </g>
    <g>
      <path class="cls-2" d="M860.38,260.24c2.18-4.86,16.35-37.86,1.4-72.45-12.73-29.47-41.61-48.52-73.98-48.92"/>
      <path class="cls-4" d="M859.81,259.98c9.03-25.67,8.11-55.2-6.75-78.26-7.09-11.06-17.47-19.25-28.25-26.44-11.31-7.42-23.67-12.17-37.01-15.79-.62-.13-.63-1.14.02-1.26,7.09-1.68,14.57-1.78,21.92-.7,12.93,1.92,25.6,7.66,35.26,16.61,17.39,16.8,27.48,40.96,26.66,65.08-.5,14.52-4.2,28.68-10.7,41.27-.16.31-.54.43-.85.27-.29-.15-.41-.49-.3-.78h0Z"/>
    </g>
    <g>
      <path class="cls-2" d="M735.95,301.22c-6.64,5.83-15.85,14.89-24.57,27.54-24.07,34.92-25.31,69.42-29.27,105.16-7.85,70.83-11.78,106.25-28.23,131.66-17.16,26.5-56.25,55.88-156.4,58.26,39.41-35.75,45.83-67.49,47.03-82.97.37-4.72.54-11.66-2.46-35.6-4.29-34.27-9.87-61.92-14.15-80.66"/>
      <path class="cls-7" d="M735.95,301.22c-29.85,26.55-44.78,60.38-49.27,99.62-3.21,27.21-5.8,57.9-9.37,85.09-5.23,38.38-10.24,78.02-43.21,103.19-1.61,1.31-4.06,3.19-5.81,4.29-1.7,1.12-4.26,2.98-6.06,3.93-5.94,3.57-12.89,7.09-19.34,9.62-8.69,3.71-18.18,6.46-27.31,8.89-6.75,1.61-14.19,3.19-21.08,4.26-18.86,3.12-37.93,4.5-56.99,5.04-.72.02-1.32-.55-1.34-1.27-.01-.4.16-.76.43-1.01,25.81-23.47,48.76-55.57,47.11-91.95-2.51-35.75-8.41-71.27-15.81-106.32,8.16,34.96,14.65,70.42,17.52,106.24,1.66,27.46-11.27,53.65-28.32,74.43-5.78,6.96-12.15,13.38-18.75,19.53l-.91-2.27c21.32-.61,42.64-2.52,63.59-6.38,13.8-2.84,27.73-6.43,40.72-11.93,6.31-2.49,13.1-5.96,18.94-9.43,1.75-.93,4.25-2.69,5.92-3.81,1.75-.98,4.05-2.92,5.67-4.16,32.4-24.58,37.19-63.6,42.49-101.23,2.32-16.45,4.82-39.93,6.83-56.63,2.09-18.91,3.81-38.02,8.92-56.43,7.47-27.67,23.6-52.78,45.42-71.32h0Z"/>
    </g>
    <g>
      <path class="cls-2" d="M290.05,453.96c8.47,19.45,17.34,46.32,19.56,78.39,2.7,38.94-5.47,70.43-13.28,91.41,17.44-7.47,52.78-23.8,90.09-51.67,26.37-19.7,72.18-56.41,101.94-120.91,17.31-37.53,23.05-71.47,25.19-93.41"/>
      <path class="cls-7" d="M290.05,453.96c24.1,53.1,27.84,115.3,7.09,170.1,0,0-1.16-1.11-1.16-1.11,27.6-11.87,54.03-26.46,78.66-43.63,48.94-33.77,88.59-75.11,113.67-129.55,13.35-28.99,21.9-60.2,25.23-92.01-2.03,22.49-6.66,44.77-13.77,66.22-21.24,62.97-61.43,111.69-114.79,150.39-27.33,20.12-57.13,36.87-88.31,50.2-.66.31-1.45-.42-1.16-1.11,20.81-54.42,17.67-116.31-5.46-169.49h0Z"/>
    </g>
    <path class="cls-5" d="M1047.73,569.95c-6.14,14.59-12.93,34.84-16.28,59.69-3.63,26.91-1.95,49.84.51,66.23-1.13-.72-2.56-1.61-4.25-2.6-2.63-1.54-4.6-2.56-4.75-2.64-3.92-2.09-42.68-38.52-35.83-92.39.86-6.78,2.81-16.68,7.73-28.21"/>
    <path class="cls-5" d="M542.24,495.72c.65,4.73,1.31,9.46,1.98,14.2.37,2.65.75,5.29,1.12,7.94,22.25-25.02,35.77-48.49,43.71-64.49,12.21-24.59,39.23-80.89,27.74-150.28-4.17-25.21-12.2-44.77-17.9-56.68"/>
    <g>
      <path class="cls-2" d="M1047.73,569.95c-8.69,13.63-23.52,40.96-27.08,78.61-4.24,44.86,9.91,79.26,17.04,94.02-29.01-32.42-67.52-83.61-95.18-154.48-16.58-42.48-25.13-81.45-29.61-113.24"/>
      <path class="cls-7" d="M1047.73,569.95c-23.75,38.29-32.49,85.56-23.14,129.67,3.03,14.63,7.77,28.93,14.32,42.36.33.68.05,1.49-.63,1.82-.56.27-1.22.13-1.62-.32-8.36-9.32-16.4-18.94-24.08-28.83-38.33-49.46-67.33-106.26-84.61-166.41-6.93-24.03-11.95-48.59-15.09-73.4,11.49,73.91,38.79,145.37,80.28,207.64,13.77,20.75,28.96,40.57,45.52,59.17,0,0-2.24,1.5-2.24,1.5-26.79-54.58-22.64-122.68,11.27-173.22h0Z"/>
    </g>
    <path class="cls-5" d="M981.45,426.39c.95-.08,1.91-.17,2.86-.25-8.52,20.71-16.95,45.04-23.78,72.69-8.86,35.87-12.8,68.36-14.31,95.56-1.3-3.23-2.58-6.53-3.85-9.91-1.73-4.6-3.34-9.12-4.84-13.55-11.54-14.47-44.59-59.83-36.28-115.61,1.55-10.42,4.34-19.84,7.73-28.21"/>
    <g>
      <path class="cls-2" d="M984.31,426.14c-15.43,26.72-36.51,71.01-44.92,129.47-6.55,45.51-3.19,84.18,1.35,111.24-18.98-14.42-78.92-63.77-99.81-151.53-14.42-60.58-3.48-111.12,3.66-135.74"/>
      <path class="cls-7" d="M984.31,426.14c-30.79,54.19-47.5,116.27-47.69,178.6-.08,20.75,1.61,41.5,5.06,61.95.09.52-.26,1.01-.78,1.1-.27.05-.53-.03-.74-.18-10.74-8.15-20.85-17.11-30.27-26.75-28.23-28.93-50.28-63.99-63.16-102.35-17.13-51.08-17.57-107.4-2.14-158.93-3.64,12.92-6.33,26.11-8.03,39.42-5.08,39.87-1.28,80.92,11.75,118.97,17.2,50.78,50.54,95.57,92.99,128.12,0,0-1.52.92-1.52.92-14.04-82.27,2.03-169.04,44.5-240.86h0Z"/>
    </g>
    <path class="cls-8" d="M988.28,339.87c-5.48-66.57-37.85-131.98-92.04-172-10.6-8.06-21.98-15.14-33.68-21.47-23.55-12.56-49.11-21.28-75.56-26.47-.14-.03-.22-.16-.2-.29.02-.13.14-.21.27-.2,21.88,2,43.61,7.56,63.87,16.13,55.22,22.88,98.54,70.21,120.38,125.4,9.89,25.17,15.97,51.87,17.45,78.87,0,.14-.1.26-.24.26-.14,0-.25-.1-.26-.23h0Z"/>
    <path class="cls-7" d="M773.66,525.94c-39.87-17.14-58.5-61.72-61.75-102.7-3.69-41.74,5.4-84.86,24.05-122.05-14.77,38.65-24.48,80.18-21.64,121.85,2.27,30.74,12.02,62.43,34.05,84.83,7.34,7.33,15.95,13.43,25.41,17.79.18.07.05.36-.12.28h0Z"/>
    <path class="cls-1" d="M275.87,287.57c-8.11,11.83-7.67,8.71-62.42,68.37-36.16,39.4-41,45.82-47.56,44.26-21.12-5.02-37.21-87.3-3.14-148.09,37.05-66.1,127.5-96.23,147.8-75.51,17.89,18.26-13.98,80.79-34.68,110.97Z"/>
    <ellipse class="cls-1" cx="276.86" cy="301.22" rx="34.7" ry="22.56" transform="translate(-108.35 439.03) rotate(-67.1)"/>
    <ellipse class="cls-1" cx="329.88" cy="314.86" rx="19.2" ry="10.39" transform="translate(-88.54 496.2) rotate(-67.1)"/>
    <g>
      <path class="cls-2" d="M383.58,438.85c8.47,19.45,17.34,46.32,19.56,78.39,2.7,38.94-5.47,70.43-13.28,91.41,34.87-14.93,141.37-65.33,192.03-172.59,38.74-82,25.4-156.08,16.6-189.64"/>
      <path class="cls-7" d="M383.58,438.85c24.34,53.2,28.01,115.2,7.43,170.23,0,0-1.64-1.56-1.64-1.56,34.92-15.11,68.09-34.44,97.95-58.05,29.75-23.57,56.38-51.54,76.68-83.7,20.27-32.11,34.28-68.34,40.09-105.92,4.29-28.19,4.28-57.17-.03-85.38-1.42-9.43-3.25-18.8-5.58-28.06,32.41,118.25-14.25,231.42-109.37,305.33-30.15,23.63-63.55,43.05-98.78,58.04-.93.42-2.06-.58-1.64-1.56,20.99-54.32,17.77-116.16-5.12-169.37h0Z"/>
    </g>
    <path class="cls-5" d="M862.78,396.6c.41,42.2,3.29,88.85,10.23,139,3.59,25.97,7.96,50.62,12.83,73.87-2.9-4.02-5.82-8.24-8.75-12.66-2.95-4.46-5.72-8.83-8.31-13.1-12.55-9.33-98.95-75.38-88.37-155.98,1.14-8.66,3.48-18.14,7.73-28.21"/>
    <g>
      <path class="cls-2" d="M862.78,396.6c-4.1,21.58-11.21,70.95-2.33,141.69,6.3,50.19,18.12,90.89,26.08,114.89-39.95-44.46-97.08-120.77-128.76-229.07-13.31-45.5-19.41-87.34-21.82-122.9"/>
      <path class="cls-7" d="M862.78,396.6c-3.76,21.37-5.53,43.03-5.85,64.69-.3,21.66.82,43.32,3.13,64.85,2.36,21.52,5.95,42.9,10.59,64.04,4.64,21.14,10.37,42.04,17.21,62.57.24.73-.15,1.52-.88,1.76-.54.18-1.11.01-1.47-.39h0c-21.83-24.19-41.71-50.14-59.36-77.52-4.31-6.91-8.71-13.77-12.75-20.85-4.21-6.97-8.02-14.18-11.96-21.31-7.52-14.45-14.78-29.04-21.07-44.07-6.55-14.92-12.01-30.28-17.27-45.68l-3.59-11.67-1.79-5.84-.89-2.92-.82-2.94c-2.23-7.83-4.22-15.72-6.11-23.64-3.75-15.84-6.72-31.85-9.05-47.95-2.33-16.1-3.96-32.29-4.88-48.52,1.32,16.2,3.22,32.34,5.8,48.38,1.31,8.01,2.75,16,4.38,23.96,1.66,7.94,3.4,15.87,5.35,23.75,1.97,7.87,4.02,15.72,6.33,23.5l.85,2.92.92,2.9,1.84,5.8,3.7,11.59,4.1,11.45c1.37,3.81,2.69,7.65,4.25,11.4,3.01,7.53,5.92,15.1,9.25,22.5,6.31,14.94,13.59,29.45,21.12,43.8,3.94,7.08,7.75,14.24,11.97,21.17,4.04,7.03,8.44,13.84,12.76,20.7,8.86,13.58,18.22,26.83,28.02,39.74,9.81,12.91,20.18,25.39,30.98,37.48l-2.35,1.37c-6.81-20.65-12.49-41.66-17.08-62.9-4.57-21.25-7.86-42.77-10.04-64.38-1-10.82-1.87-21.65-2.22-32.51l-.17-4.07-.09-4.07c-.04-2.72-.13-5.43-.13-8.14l.05-8.15c.02-2.71.13-5.43.19-8.14.7-21.7,2.76-43.39,7.05-64.66Z"/>
    </g>
    <path class="cls-5" d="M311.1,536.92c.21,4.37.34,8.89.39,13.54.03,3.4,0,6.72-.06,9.96,7.93-19.69,20.81-55.08,26.86-94.18,0,0,3.05-19.7-3.14-55.49-.72-4.19-2.3-11.27-8.09-16.18-1.98-1.68-3.92-2.65-5.12-3.17"/>
    <g>
      <path class="cls-2" d="M159.57,449.13c10.86,18.64,31.99,60.83,31,117.64-.7,40.3-12.24,71.7-20.68,90.02,12.1-4.57,130.65-51.49,155.52-166.12,8.97-41.36,2.71-77.53-3.96-101.06"/>
      <path class="cls-7" d="M159.57,449.13c37.84,62.01,42.51,142.42,11.57,208.24,0,0-1.74-1.87-1.74-1.87,13.06-5.08,25.68-11.41,37.85-18.41,61.34-35.02,111.16-91.76,120.23-163.71,3.71-27.95,1.3-56.56-6.04-83.77,4.02,13.53,6.82,27.46,8.12,41.56,7.46,74.06-27.64,140.14-85.53,184.76-22.42,17.41-47.19,31.79-73.66,42.15-.71.27-1.5-.08-1.78-.79,30.21-67.93,27.86-143.02-9.03-208.17h0Z"/>
    </g>
    <path class="cls-1" d="M521.25,358.11c14.96-48.91,13.54-70.69,21.41-71.44,11.97-1.14,37.41,47.07,25.75,90.84-13.13,49.29-69.47,78.48-79.02,70.34-6.78-5.78,12.92-27.84,31.86-89.73Z"/>
  </g>
</svg>