<?xml version="1.0" encoding="UTF-8"?>
<!-- Generated by Pixelmator Pro 3.6.7 -->
<svg width="345" height="147" viewBox="0 0 345 147" xmlns="http://www.w3.org/2000/svg">
    <g id="g8">
        <g id="g10">
            <path id="path12" fill="#00a3cc" stroke="none" d="M 124.625458 146.476013 C 124.625458 146.476013 85.331726 146.476013 85.299995 146.476013 C 85.755737 146.476013 87.185997 144.559998 87.547867 144.193329 C 88.306267 143.330658 89.031731 142.445343 89.716125 141.507996 C 91.420265 139.200012 92.728134 136.612 93.701599 133.942688 C 97.109863 124.73468 96.875061 113.986664 93.062531 105.759979 C 89.072403 97.150635 82.862 89.619995 78.503067 82.502655 C 71.427597 70.925323 66.455734 57.951996 67.508797 44.150665 C 68.176529 35.401337 72.169731 25.822662 78.100533 19.251984 C 78.100533 19.251984 102.758392 19.251984 115.945862 19.251984 C 105.230263 29.421326 102.070801 43.721313 105.88546 58.434662 C 107.968269 66.578674 113.236931 74.193329 117.281197 80.389313 C 121.541199 86.933319 125.968796 93.567993 129.138 100.708008 C 133.007324 109.393311 134.209335 119.343994 132.352127 128.716003 C 131.48494 133.245331 129.937988 137.708008 127.756264 141.754639 C 127.391197 142.393311 125.47506 146.476013 124.625458 146.476013"/>
            <path id="path14" fill="#66cbc0" stroke="none" d="M 146.450668 109.325317 L 211.718658 109.325317 L 211.718658 1.769348 L 125.823997 1.769348 C 119.33387 7.468018 115.354134 18.905334 118.217201 30.616028 C 120.450531 39.789337 127.0812 48.065338 132.997864 55.912018 C 142.390671 68.386658 152.658661 82.412018 149.794662 99.023987 C 149.222672 102.423981 148.118668 106.289307 146.450668 109.325317"/>
            <path id="path16" fill="#005c87" stroke="none" d="M 0 1.769348 L 0 109.325317 L 64.228668 109.325317 C 67.302132 102.440002 66.177063 94.354645 64.121864 89.388 C 57.916664 74.242676 47.8312 66.048004 42.216667 52.828003 C 36.912533 40.305328 36.298931 28.85733 40.889599 12.402679 C 41.146397 11.473328 43.697334 4.921326 45.405731 1.769348 L 0 1.769348"/>
            <path id="path18" fill="#00a3cc" stroke="none" d="M 343.554657 1.769348 L 290.227997 1.769348 L 290.227997 87.08136 C 290.243988 87.513336 290.141327 89.578674 290.041321 91.691986 C 289.445343 105.062653 286.309326 107.73468 282.980011 109.325317 L 343.554657 109.325317 L 343.554657 1.769348"/>
            <path id="path20" fill="#005c87" stroke="none" d="M 226.226654 19.369324 C 226.226654 59.264008 226.226654 125.978668 226.226654 125.978668 L 226.278656 127.705322 C 226.587997 137.194672 234.317322 144.757324 243.888 144.757324 C 253.315994 144.757324 260.986664 137.359985 261.526642 128.062653 L 261.552002 125.978668 C 261.552002 125.978668 261.552002 59.264008 261.552002 19.369324 L 226.226654 19.369324"/>
        </g>
    </g>
</svg>
